<svg width="20" height="20" viewBox="0 0 20 20" fill="none" xmlns="http://www.w3.org/2000/svg">
<path d="M10.0001 11.6667H10.8335C11.7501 11.6667 12.5001 10.9167 12.5001 10.0001V1.66675H5.00012C3.75012 1.66675 2.65846 2.3584 2.0918 3.37507" stroke="#8A8A8A" stroke-width="1.5" stroke-linecap="round" stroke-linejoin="round"/>
<path d="M1.6665 14.1667C1.6665 15.5501 2.78317 16.6667 4.1665 16.6667H4.99984C4.99984 15.7501 5.74984 15.0001 6.6665 15.0001C7.58317 15.0001 8.33317 15.7501 8.33317 16.6667H11.6665C11.6665 15.7501 12.4165 15.0001 13.3332 15.0001C14.2498 15.0001 14.9998 15.7501 14.9998 16.6667H15.8332C17.2165 16.6667 18.3332 15.5501 18.3332 14.1667V11.6667H15.8332C15.3748 11.6667 14.9998 11.2917 14.9998 10.8334V8.33341C14.9998 7.87508 15.3748 7.50008 15.8332 7.50008H16.9082L15.4832 5.00842C15.1832 4.49176 14.6332 4.16675 14.0332 4.16675H12.4998V10.0001C12.4998 10.9167 11.7498 11.6667 10.8332 11.6667H9.99984" stroke="#8A8A8A" stroke-width="1.5" stroke-linecap="round" stroke-linejoin="round"/>
<path d="M6.66667 18.3333C7.58714 18.3333 8.33333 17.5871 8.33333 16.6667C8.33333 15.7462 7.58714 15 6.66667 15C5.74619 15 5 15.7462 5 16.6667C5 17.5871 5.74619 18.3333 6.66667 18.3333Z" stroke="#8A8A8A" stroke-width="1.5" stroke-linecap="round" stroke-linejoin="round"/>
<path d="M13.3332 18.3333C14.2536 18.3333 14.9998 17.5871 14.9998 16.6667C14.9998 15.7462 14.2536 15 13.3332 15C12.4127 15 11.6665 15.7462 11.6665 16.6667C11.6665 17.5871 12.4127 18.3333 13.3332 18.3333Z" stroke="#8A8A8A" stroke-width="1.5" stroke-linecap="round" stroke-linejoin="round"/>
<path d="M18.3333 10V11.6667H15.8333C15.375 11.6667 15 11.2917 15 10.8333V8.33333C15 7.875 15.375 7.5 15.8333 7.5H16.9083L18.3333 10Z" stroke="#8A8A8A" stroke-width="1.5" stroke-linecap="round" stroke-linejoin="round"/>
<path d="M1.6665 6.66675H6.6665" stroke="#8A8A8A" stroke-width="1.5" stroke-linecap="round" stroke-linejoin="round"/>
<path d="M1.6665 9.16675H4.99984" stroke="#8A8A8A" stroke-width="1.5" stroke-linecap="round" stroke-linejoin="round"/>
<path d="M1.6665 11.6667H3.33317" stroke="#8A8A8A" stroke-width="1.5" stroke-linecap="round" stroke-linejoin="round"/>
</svg>
