<svg width="20" height="20" viewBox="0 0 20 20" fill="none" xmlns="http://www.w3.org/2000/svg">
<g clip-path="url(#clip0_1527_41359)">
<path d="M9.98961 2.99155C10.0174 2.99161 10.0453 2.99167 10.074 2.99173C10.4739 2.99309 10.8647 3.00168 11.2577 3.08213C11.2849 3.08742 11.3122 3.0927 11.3403 3.09815C12.2605 3.27999 13.1843 3.62022 13.9413 4.18539C14.0134 4.23706 14.0134 4.23706 14.0816 4.22523C14.1005 4.21684 14.1195 4.20845 14.139 4.19981C14.1708 4.18717 14.1708 4.18717 14.2033 4.17428C14.2238 4.16578 14.2444 4.15729 14.2655 4.14854C14.6138 4.03824 14.9408 4.08644 15.2696 4.2374C15.5585 4.39457 15.7411 4.63554 15.8514 4.94151C15.8615 4.96879 15.8615 4.96879 15.8717 4.99662C15.964 5.29746 15.8976 5.58326 15.7967 5.87119C15.7767 5.92458 15.7767 5.92458 15.7694 5.98057C15.809 6.04973 15.8499 6.11229 15.8959 6.1771C16.3972 6.92116 16.7171 7.76352 16.8973 8.63975C16.9015 8.65972 16.9056 8.6797 16.9099 8.70028C16.9927 9.12942 17.0101 9.55385 17.0084 9.98984C17.0083 10.0177 17.0083 10.0455 17.0082 10.0742C17.0069 10.4737 17 10.8655 16.9178 11.2579C16.9097 11.2979 16.9097 11.2979 16.9014 11.3387C16.632 12.6265 16.0581 13.8052 15.1544 14.7656C15.1059 14.8182 15.0601 14.8705 15.015 14.9257C14.9617 14.989 14.9113 15.0417 14.8482 15.0946C14.766 15.1645 14.6863 15.2363 14.6073 15.3099C13.6979 16.1266 12.5464 16.6554 11.3551 16.8993C11.3354 16.9033 11.3158 16.9073 11.2955 16.9115C10.8942 16.9877 10.4971 17.0096 10.0893 17.0087C10.009 17.0086 9.92862 17.0093 9.84824 17.01C9.48253 17.0112 9.13 16.978 8.76939 16.9181C8.73874 16.9131 8.70808 16.9081 8.6765 16.9029C7.75586 16.7405 6.8097 16.3757 6.05841 15.8148C5.98631 15.7631 5.98631 15.7631 5.91817 15.775C5.8992 15.7834 5.88024 15.7917 5.8607 15.8004C5.83948 15.8088 5.81826 15.8172 5.7964 15.8259C5.77589 15.8344 5.75537 15.8429 5.73424 15.8517C5.38592 15.962 5.05891 15.9138 4.7301 15.7628C4.44122 15.6056 4.25863 15.3647 4.1483 15.0587C4.1416 15.0405 4.1349 15.0223 4.128 15.0036C4.03573 14.7027 4.10215 14.4169 4.20299 14.129C4.22303 14.0756 4.22303 14.0756 4.23033 14.0196C4.19069 13.9505 4.14978 13.8879 4.10386 13.8231C3.60249 13.079 3.28265 12.2367 3.1024 11.3604C3.09827 11.3405 3.09413 11.3205 3.08987 11.2999C3.00701 10.8708 2.98966 10.4464 2.99132 10.0104C2.99137 9.98251 2.99143 9.95467 2.99149 9.92598C2.99285 9.52616 3.00121 9.13518 3.08189 8.74229C3.08732 8.7146 3.09276 8.68691 3.09835 8.65839C3.36021 7.34892 3.96981 6.13305 4.9029 5.17393C4.95568 5.1175 5.00246 5.05655 5.05064 4.99619C5.08222 4.96617 5.11469 4.93706 5.14805 4.90903C5.21122 4.85534 5.27303 4.80133 5.33316 4.74422C6.22043 3.9033 7.39823 3.36932 8.58311 3.11631C8.6084 3.11087 8.63369 3.10544 8.65974 3.09983C9.1029 3.00982 9.53858 2.98984 9.98961 2.99155ZM8.19517 4.09385C8.17372 4.10043 8.15226 4.10701 8.13015 4.11378C6.58144 4.59834 5.29952 5.70919 4.53111 7.129C4.5208 7.14806 4.51048 7.16712 4.49986 7.18675C4.20235 7.74835 3.9953 8.38744 3.9022 9.01572C3.89747 9.04436 3.89275 9.073 3.88787 9.10251C3.84265 9.39878 3.83773 9.69067 3.83897 9.98984C3.83903 10.0153 3.83909 10.0408 3.83915 10.067C3.84051 10.4338 3.85088 10.7891 3.92955 11.1485C3.93484 11.1745 3.94012 11.2005 3.94557 11.2272C4.11266 12.0395 4.43236 12.7794 4.88658 13.4728C4.91873 13.4682 4.95087 13.4637 4.98399 13.4591C5.10022 13.4467 5.21576 13.441 5.33262 13.4386C5.36467 13.4379 5.39671 13.4372 5.42972 13.4364C5.50104 13.4373 5.54705 13.4471 5.61403 13.474C5.70418 13.5086 5.77413 13.5263 5.87095 13.5274C6.00303 13.4582 6.09905 13.3548 6.20163 13.2489C6.23346 13.2175 6.26539 13.1862 6.29739 13.155C6.38504 13.0691 6.47137 12.9819 6.55752 12.8945C6.65067 12.8004 6.74499 12.7075 6.83916 12.6145C7.02344 12.432 7.20658 12.2485 7.38935 12.0645C7.53789 11.9151 7.68682 11.766 7.83605 11.6172C7.85728 11.5961 7.87851 11.5749 7.90038 11.5531C7.9435 11.5101 7.98663 11.4671 8.02975 11.4241C8.43422 11.0208 8.83742 10.6163 9.2402 10.2113C9.58593 9.86373 9.93272 9.51725 10.2803 9.17155C10.6838 8.77023 11.0867 8.36824 11.4885 7.96519C11.5313 7.92222 11.5742 7.87925 11.617 7.83629C11.6381 7.81515 11.6592 7.79401 11.6809 7.77222C11.8295 7.6232 11.9787 7.47466 12.128 7.3263C12.3099 7.14551 12.4911 6.96401 12.6714 6.78155C12.7634 6.68845 12.8558 6.5957 12.949 6.50382C13.0343 6.4197 13.1187 6.33471 13.2023 6.2489C13.2327 6.218 13.2635 6.18745 13.2947 6.15729C13.3856 6.06907 13.4678 5.98449 13.5272 5.87119C13.5258 5.74918 13.4902 5.65504 13.4452 5.54307C13.4352 5.47098 13.4367 5.40618 13.4383 5.33286C13.439 5.2986 13.4397 5.26434 13.4405 5.22904C13.4461 5.11378 13.4565 5.00108 13.4725 4.88682C11.8751 3.89306 10.0191 3.52925 8.19517 4.09385ZM14.3475 5.07822C14.2651 5.19666 14.2502 5.29097 14.2655 5.43369C14.3132 5.56171 14.3713 5.63091 14.4842 5.70713C14.5955 5.7442 14.6957 5.75596 14.8088 5.71674C14.9168 5.66242 14.9881 5.59682 15.0422 5.48817C15.0842 5.34727 15.0487 5.22408 14.9867 5.09531C14.8895 4.98786 14.7911 4.95185 14.65 4.92783C14.5285 4.94767 14.4414 4.9995 14.3475 5.07822ZM13.9276 6.61967C13.8837 6.66291 13.8409 6.70708 13.7981 6.75134C13.7663 6.78271 13.7343 6.81398 13.7023 6.84517C13.6147 6.93111 13.5284 7.01828 13.4422 7.10571C13.3491 7.19978 13.2547 7.29267 13.1606 7.38571C12.9763 7.56816 12.7931 7.7517 12.6104 7.93566C12.4618 8.08512 12.3129 8.23418 12.1637 8.38296C12.1424 8.40413 12.1212 8.42529 12.0993 8.4471C12.0562 8.49009 12.0131 8.53309 11.97 8.57608C11.5655 8.97938 11.1623 9.38392 10.7595 9.78891C10.4138 10.1365 10.067 10.4829 9.71941 10.8286C9.31588 11.23 8.91303 11.632 8.51124 12.035C8.4684 12.078 8.42556 12.1209 8.38273 12.1639C8.35111 12.1956 8.35111 12.1956 8.31885 12.228C8.17019 12.377 8.02105 12.5255 7.87172 12.6739C7.68978 12.8547 7.50859 13.0362 7.32832 13.2186C7.23629 13.3118 7.14397 13.4045 7.05073 13.4964C6.96539 13.5805 6.88106 13.6655 6.79744 13.7513C6.76701 13.7822 6.73622 13.8127 6.70506 13.8429C6.61417 13.9311 6.5319 14.0157 6.47252 14.129C6.47395 14.251 6.50955 14.3452 6.55455 14.4571C6.56455 14.5292 6.563 14.594 6.56138 14.6673C6.56068 14.7016 6.55997 14.7359 6.55925 14.7712C6.55361 14.8864 6.54324 14.9991 6.5272 15.1134C8.02163 16.0431 9.6947 16.4058 11.4265 16.0122C11.5539 15.9812 11.6794 15.9451 11.8045 15.9063C11.826 15.8998 11.8475 15.8932 11.8696 15.8864C13.4183 15.4019 14.7002 14.291 15.4686 12.8712C15.4841 12.8426 15.4841 12.8426 15.4999 12.8134C15.7974 12.2518 16.0044 11.6128 16.0975 10.9845C16.1046 10.9415 16.1046 10.9415 16.1118 10.8977C16.1571 10.6014 16.162 10.3095 16.1607 10.0104C16.1607 9.98488 16.1606 9.95942 16.1606 9.93318C16.1592 9.56643 16.1488 9.21108 16.0702 8.85166C16.0649 8.8257 16.0596 8.79974 16.0542 8.77299C15.8868 7.95938 15.568 7.22036 15.1131 6.52744C15.0977 6.52934 15.0823 6.53123 15.0663 6.53318C14.933 6.54888 14.8015 6.55986 14.6671 6.56162C14.6351 6.56233 14.603 6.56303 14.57 6.56376C14.4987 6.56287 14.4527 6.55309 14.3857 6.52617C14.1822 6.44821 14.0864 6.47107 13.9276 6.61967ZM5.01337 14.4163C4.9377 14.5281 4.92928 14.6223 4.95216 14.754C4.97813 14.8465 5.01351 14.9054 5.07799 14.9767C5.19778 15.0432 5.29695 15.081 5.43345 15.0587C5.55067 15.0063 5.63325 14.9492 5.70689 14.8434C5.74972 14.7095 5.75097 14.6114 5.70177 14.4793C5.6306 14.3689 5.55811 14.3073 5.43345 14.2657C5.25708 14.2488 5.13252 14.2845 5.01337 14.4163Z" fill="#8A8A8A"/>
</g>
<defs>
<clipPath id="clip0_1527_41359">
<rect width="14" height="14" fill="white" transform="translate(3 3)"/>
</clipPath>
</defs>
</svg>
