<svg width="25" height="25" viewBox="0 0 25 25" fill="none" xmlns="http://www.w3.org/2000/svg">
<path d="M24.333 12.5C24.333 5.87258 18.9604 0.5 12.333 0.5C5.70559 0.5 0.333008 5.87258 0.333008 12.5C0.333008 18.4895 4.72123 23.454 10.458 24.3542V15.9687H7.41114V12.5H10.458V9.85626C10.458 6.84874 12.2495 5.18751 14.9906 5.18751C16.3035 5.18751 17.6768 5.42187 17.6768 5.42187V8.375H16.1636C14.6729 8.375 14.208 9.30001 14.208 10.249V12.5H17.5361L17.0041 15.9687H14.208V24.3542C19.9448 23.454 24.333 18.4895 24.333 12.5Z" fill="#1877F2"/>
<path d="M17.0041 15.9687L17.5361 12.5H14.208V10.249C14.208 9.30001 14.6729 8.37499 16.1636 8.37499H17.6768V5.42187C17.6768 5.42187 16.3035 5.1875 14.9906 5.1875C12.2495 5.1875 10.458 6.84874 10.458 9.85625V12.5H7.41113V15.9687H10.458V24.3542C11.0783 24.4514 11.7052 24.5002 12.333 24.5C12.9709 24.5 13.5971 24.4501 14.208 24.3542V15.9687H17.0041Z" fill="white"/>
</svg>
