<svg width="24" height="24" viewBox="0 0 24 24" fill="none" xmlns="http://www.w3.org/2000/svg">
<path d="M10.9643 4.00336C11.1198 3.98718 11.192 4.02957 11.3167 4.12825C11.3411 4.14746 11.3411 4.14746 11.366 4.16706C11.4147 4.20562 11.4628 4.24485 11.5108 4.28438C11.5359 4.3049 11.561 4.32543 11.5869 4.34658C11.7822 4.51174 11.9636 4.69338 12.1436 4.87764C12.1774 4.91181 12.1774 4.91181 12.2119 4.94668C12.5163 5.26418 12.7628 5.64 12.9777 6.03295C12.9877 6.05116 12.9976 6.06938 13.0079 6.08814C13.6529 7.28668 13.67 8.59868 13.4277 9.92217C13.3569 10.3327 13.3325 10.7425 13.5355 11.1123C13.7274 11.4144 13.9689 11.6692 14.3028 11.7635C14.6915 11.8316 15.0371 11.7725 15.3613 11.5207C15.598 11.3094 15.7606 11.0446 15.8252 10.7166C15.829 10.6652 15.8316 10.6137 15.8333 10.5621C15.8344 10.533 15.8354 10.504 15.8365 10.4741C15.8386 10.4129 15.8406 10.3518 15.8426 10.2906C15.8437 10.2617 15.8448 10.2328 15.8459 10.203C15.8467 10.1765 15.8476 10.15 15.8485 10.1227C15.854 10.0609 15.854 10.0609 15.8827 10.0297C15.9614 10.0153 15.9614 10.0153 16.0553 10.0297C16.116 10.0958 16.1589 10.1524 16.2063 10.2287C16.2198 10.2498 16.2334 10.2709 16.2474 10.2926C17.1226 11.6826 17.5188 13.5041 17.2502 15.1695C17.0687 16.2134 16.6462 17.1934 15.9978 17.9919C15.9733 18.0223 15.9488 18.0526 15.9236 18.0839C15.0508 19.1505 13.8299 19.8486 12.5175 19.9903C12.4381 19.9952 12.3587 19.9968 12.2792 19.9977C12.257 19.9981 12.2349 19.9984 12.2121 19.9987C11.7191 20.0041 11.2438 19.9989 10.763 19.8654C10.7263 19.8554 10.7263 19.8554 10.6888 19.8451C9.345 19.4665 8.15949 18.5447 7.44415 17.245C7.37778 17.121 7.315 16.9951 7.25394 16.8679C7.24486 16.849 7.23578 16.8301 7.22643 16.8107C6.55732 15.3975 6.51727 13.6752 6.95031 12.1745C7.27726 11.1008 7.8487 10.1763 8.54949 9.34702C8.59989 9.28728 8.64884 9.22659 8.69746 9.16516C8.81309 9.021 8.93394 8.88217 9.05428 8.74267C9.21286 8.55883 9.36985 8.37352 9.52618 8.18744C9.54795 8.16196 9.56971 8.13648 9.59214 8.11023C10.3661 7.19564 11.0049 6.11124 10.998 4.82922C10.9897 4.6479 10.9718 4.46744 10.9535 4.28701C10.9508 4.25938 10.9481 4.23174 10.9453 4.20327C10.9428 4.17831 10.9402 4.15335 10.9376 4.12764C10.9356 4.0658 10.9356 4.0658 10.9643 4.00336ZM11.1886 11.9501C11.1574 11.9853 11.1574 11.9853 11.1254 12.0211C11.1021 12.0468 11.0789 12.0726 11.0549 12.0991C11.0189 12.1403 11.0189 12.1403 10.9823 12.1822C10.9586 12.2086 10.9348 12.2349 10.9104 12.2621C9.99567 13.2842 9.33254 14.4486 9.34344 15.9126C9.36006 16.601 9.58894 17.2591 10.0151 17.7734C10.0337 17.7958 10.0337 17.7958 10.0525 17.8186C10.5111 18.3654 11.1361 18.7147 11.822 18.7533C12.578 18.7773 13.2394 18.5448 13.7993 17.9729C13.8224 17.9483 13.8455 17.9236 13.8693 17.8983C13.8933 17.873 13.9173 17.8477 13.942 17.8217C14.4245 17.2826 14.662 16.5426 14.6562 15.7978C14.6473 15.4704 14.6161 15.0523 14.4446 14.7758C14.3945 14.7383 14.3945 14.7383 14.3295 14.7446C14.2676 14.7851 14.2138 14.8257 14.157 14.8734C13.7359 15.2062 13.2871 15.2881 12.7764 15.213C12.331 15.1132 11.9736 14.8652 11.7211 14.4558C11.3984 13.8732 11.3828 13.28 11.3904 12.6194C11.3908 12.5526 11.3912 12.4858 11.3915 12.419C11.3925 12.2575 11.394 12.0959 11.3958 11.9344C11.3048 11.9017 11.2698 11.8899 11.1886 11.9501Z" fill="#FD7301"/>
</svg>
