<svg width="17" height="16" viewBox="0 0 17 16" fill="none" xmlns="http://www.w3.org/2000/svg">
<path d="M1.21499 9.26613C1.31398 9.23997 1.40667 9.23326 1.50529 9.26613C1.69328 9.41363 1.67457 9.45582 1.71264 9.7223C1.71264 9.98232 1.71264 10.2423 1.71264 10.5102C4.5318 7.69108 7.35097 4.87191 10.2556 1.96732C9.80395 1.96732 9.80395 1.96732 9.34321 1.96732C9.18667 1.92818 9.09816 1.89413 9.01145 1.75997C8.98529 1.66098 8.97858 1.56829 9.01145 1.46967C9.10119 1.35529 9.1592 1.2969 9.30524 1.27834C9.48439 1.25711 9.663 1.25598 9.84321 1.25608C9.87825 1.25599 9.9133 1.2559 9.94941 1.25581C10.023 1.25569 10.0967 1.25568 10.1703 1.25577C10.2828 1.25584 10.3953 1.25535 10.5078 1.25483C10.5796 1.25478 10.6514 1.25477 10.7232 1.25479C10.7567 1.2546 10.7902 1.2544 10.8247 1.25421C11.0182 1.255 11.182 1.25777 11.3429 1.37766C11.4834 1.56624 11.4431 1.8413 11.4423 2.06443C11.4422 2.10397 11.4422 2.1435 11.4422 2.18304C11.4422 2.26549 11.442 2.34794 11.4417 2.43039C11.4414 2.53614 11.4413 2.64189 11.4413 2.74764C11.4413 2.82909 11.4412 2.91054 11.4411 2.99199C11.441 3.04997 11.4409 3.10794 11.4409 3.16591C11.4408 3.20094 11.4406 3.23597 11.4405 3.27205C11.4404 3.30297 11.4403 3.33389 11.4402 3.36574C11.435 3.50657 11.3651 3.56936 11.2684 3.66502C11.2094 3.70908 11.2094 3.70908 11.0966 3.72334C10.9378 3.6994 10.8757 3.65044 10.7739 3.52246C10.7505 3.17068 10.7532 2.81753 10.7532 2.46496C7.93404 5.28413 5.11488 8.1033 2.21028 11.0079C2.53873 11.0079 2.86718 11.0079 3.20558 11.0079C3.30544 11.0412 3.37149 11.1122 3.43366 11.1945C3.4855 11.3708 3.4855 11.3708 3.4544 11.4641C3.41795 11.5148 3.41795 11.5148 3.36887 11.5703C3.34569 11.598 3.34569 11.598 3.32205 11.6262C3.11952 11.7483 2.78651 11.6955 2.55622 11.6956C2.52106 11.6957 2.4859 11.6958 2.44967 11.6958C2.3759 11.696 2.30214 11.696 2.22838 11.696C2.11536 11.696 2.00235 11.6964 1.88933 11.6968C1.81745 11.6969 1.74556 11.6969 1.67368 11.6969C1.63992 11.6971 1.60616 11.6972 1.57138 11.6974C1.54001 11.6973 1.50864 11.6973 1.47632 11.6972C1.44881 11.6972 1.42129 11.6973 1.39294 11.6973C1.27093 11.6889 1.18738 11.6602 1.10484 11.569C0.907094 11.2924 1.00378 10.736 1.0038 10.4086C1.00375 10.3088 1.00337 10.209 1.00298 10.1092C1.00292 10.0454 1.00288 9.98156 1.00286 9.91775C1.00271 9.88809 1.00256 9.85844 1.00241 9.82788C1.00293 9.60019 1.00451 9.40216 1.21499 9.26613Z" fill="#8A8A8A"/>
<path fill-rule="evenodd" clip-rule="evenodd" d="M13.5459 3.60348C13.7411 3.79874 13.7411 4.11532 13.5459 4.31058L5.06058 12.7959C4.86532 12.9911 4.54873 12.9911 4.35347 12.7959C4.15821 12.6006 4.15821 12.284 4.35347 12.0888L12.8388 3.60348C13.034 3.40822 13.3506 3.40822 13.5459 3.60348Z" fill="#8A8A8A"/>
<path fill-rule="evenodd" clip-rule="evenodd" d="M12.8388 3.60355C13.0341 3.40829 13.3507 3.40829 13.5459 3.60355L16.3744 6.43198C16.5696 6.62724 16.5696 6.94383 16.3744 7.13909C16.1791 7.33435 15.8625 7.33435 15.6673 7.13909L12.8388 4.31066C12.6436 4.1154 12.6436 3.79882 12.8388 3.60355Z" fill="#8A8A8A"/>
<path fill-rule="evenodd" clip-rule="evenodd" d="M11.4248 5.01786C11.62 4.8226 11.9366 4.8226 12.1319 5.01786L13.5461 6.43207C13.7413 6.62734 13.7413 6.94392 13.5461 7.13918C13.3508 7.33444 13.0342 7.33444 12.839 7.13918L11.4248 5.72497C11.2295 5.5297 11.2295 5.21312 11.4248 5.01786Z" fill="#8A8A8A"/>
<path fill-rule="evenodd" clip-rule="evenodd" d="M7.18209 9.26029C7.37735 9.06503 7.69394 9.06503 7.8892 9.26029L9.30341 10.6745C9.49867 10.8698 9.49867 11.1863 9.30341 11.3816C9.10815 11.5769 8.79157 11.5769 8.5963 11.3816L7.18209 9.9674C6.98683 9.77214 6.98683 9.45555 7.18209 9.26029Z" fill="#8A8A8A"/>
<path fill-rule="evenodd" clip-rule="evenodd" d="M10.0102 6.43192C10.2055 6.23666 10.5221 6.23666 10.7173 6.43192L12.1315 7.84614C12.3268 8.0414 12.3268 8.35798 12.1315 8.55324C11.9363 8.74851 11.6197 8.74851 11.4244 8.55324L10.0102 7.13903C9.81495 6.94377 9.81495 6.62718 10.0102 6.43192Z" fill="#8A8A8A"/>
<path fill-rule="evenodd" clip-rule="evenodd" d="M5.76754 10.6746C5.9628 10.4793 6.27938 10.4793 6.47465 10.6746L7.88886 12.0888C8.08412 12.2841 8.08412 12.6007 7.88886 12.7959C7.6936 12.9912 7.37702 12.9912 7.18175 12.7959L5.76754 11.3817C5.57228 11.1864 5.57228 10.8699 5.76754 10.6746Z" fill="#8A8A8A"/>
<path fill-rule="evenodd" clip-rule="evenodd" d="M8.59615 7.84623C8.79142 7.65097 9.108 7.65097 9.30326 7.84623L12.1317 10.6747C12.3269 10.8699 12.3269 11.1865 12.1317 11.3818C11.9364 11.577 11.6198 11.577 11.4246 11.3818L8.59615 8.55334C8.40089 8.35807 8.40089 8.04149 8.59615 7.84623Z" fill="#8A8A8A"/>
<path fill-rule="evenodd" clip-rule="evenodd" d="M4.35348 12.0889C4.54874 11.8936 4.86532 11.8936 5.06058 12.0889L7.88901 14.9173C8.08427 15.1126 8.08427 15.4292 7.88901 15.6244C7.69375 15.8197 7.37717 15.8197 7.1819 15.6244L4.35348 12.796C4.15822 12.6007 4.15822 12.2842 4.35348 12.0889Z" fill="#8A8A8A"/>
</svg>
