<svg width="25" height="25" viewBox="0 0 25 25" fill="none" xmlns="http://www.w3.org/2000/svg">
<g clip-path="url(#clip0_1527_9288)">
<path d="M12.6725 0.681885C7.73778 0.681885 6.29455 0.686976 6.01401 0.710248C5.00131 0.79443 4.37115 0.953885 3.68463 1.2957C3.15555 1.55843 2.73829 1.86298 2.32649 2.28988C1.57651 3.06843 1.12198 4.02625 0.957438 5.16479C0.87744 5.71752 0.854168 5.83025 0.849441 8.65352C0.847623 9.59461 0.849441 10.8332 0.849441 12.4944C0.849441 17.4253 0.854895 18.8672 0.878531 19.1472C0.960347 20.1326 1.11489 20.7526 1.44215 21.4308C2.06759 22.729 3.26209 23.7035 4.66932 24.0672C5.15658 24.1926 5.69475 24.2617 6.38564 24.2944C6.67835 24.3072 9.6619 24.3162 12.6473 24.3162C15.6326 24.3162 18.618 24.3126 18.9034 24.2981C19.7034 24.2604 20.1679 24.1981 20.6816 24.0653C22.0979 23.6999 23.2706 22.7399 23.9087 21.4235C24.2296 20.7617 24.3924 20.1181 24.466 19.1841C24.482 18.9804 24.4887 15.7337 24.4887 12.4913C24.4887 9.24843 24.4815 6.0077 24.4655 5.80407C24.3909 4.85498 24.2282 4.21679 23.8969 3.54225C23.6251 2.99007 23.3233 2.5777 22.8851 2.15607C22.1032 1.40916 21.1468 0.954612 20.0072 0.790248C19.4551 0.71043 19.3451 0.686794 16.5197 0.681885H12.6725Z" fill="url(#paint0_radial_1527_9288)"/>
<path d="M12.6725 0.681885C7.73778 0.681885 6.29455 0.686976 6.01401 0.710248C5.00131 0.79443 4.37115 0.953885 3.68463 1.2957C3.15555 1.55843 2.73829 1.86298 2.32649 2.28988C1.57651 3.06843 1.12198 4.02625 0.957438 5.16479C0.87744 5.71752 0.854168 5.83025 0.849441 8.65352C0.847623 9.59461 0.849441 10.8332 0.849441 12.4944C0.849441 17.4253 0.854895 18.8672 0.878531 19.1472C0.960347 20.1326 1.11489 20.7526 1.44215 21.4308C2.06759 22.729 3.26209 23.7035 4.66932 24.0672C5.15658 24.1926 5.69475 24.2617 6.38564 24.2944C6.67835 24.3072 9.6619 24.3162 12.6473 24.3162C15.6326 24.3162 18.618 24.3126 18.9034 24.2981C19.7034 24.2604 20.1679 24.1981 20.6816 24.0653C22.0979 23.6999 23.2706 22.7399 23.9087 21.4235C24.2296 20.7617 24.3924 20.1181 24.466 19.1841C24.482 18.9804 24.4887 15.7337 24.4887 12.4913C24.4887 9.24843 24.4815 6.0077 24.4655 5.80407C24.3909 4.85498 24.2282 4.21679 23.8969 3.54225C23.6251 2.99007 23.3233 2.5777 22.8851 2.15607C22.1032 1.40916 21.1468 0.954612 20.0072 0.790248C19.4551 0.71043 19.3451 0.686794 16.5197 0.681885H12.6725Z" fill="url(#paint1_radial_1527_9288)"/>
<path d="M12.6672 3.77271C10.2971 3.77271 9.99963 3.78307 9.06875 3.82543C8.13969 3.86798 7.50553 4.01507 6.95063 4.23089C6.37665 4.4538 5.88976 4.75198 5.40468 5.23725C4.91924 5.72234 4.62107 6.20925 4.39744 6.78307C4.18108 7.33816 4.03381 7.97252 3.992 8.90125C3.95036 9.83216 3.93945 10.1298 3.93945 12.5C3.93945 14.8702 3.95 15.1667 3.99218 16.0976C4.0349 17.0267 4.18199 17.6609 4.39762 18.2158C4.62071 18.7898 4.91888 19.2767 5.40414 19.7618C5.88903 20.2473 6.37592 20.5462 6.94954 20.7691C7.5048 20.9849 8.13914 21.132 9.06803 21.1745C9.99891 21.2169 10.2962 21.2273 12.6661 21.2273C15.0364 21.2273 15.3329 21.2169 16.2638 21.1745C17.1929 21.132 17.8278 20.9849 18.383 20.7691C18.9568 20.5462 19.443 20.2473 19.9279 19.7618C20.4133 19.2767 20.7115 18.7898 20.9351 18.216C21.1497 17.6609 21.2969 17.0265 21.3406 16.0978C21.3824 15.1669 21.3933 14.8702 21.3933 12.5C21.3933 10.1298 21.3824 9.83234 21.3406 8.90143C21.2969 7.97234 21.1497 7.33816 20.9351 6.78325C20.7115 6.20925 20.4133 5.72234 19.9279 5.23725C19.4424 4.7518 18.957 4.45361 18.3825 4.23089C17.8261 4.01507 17.1916 3.86798 16.2625 3.82543C15.3317 3.78307 15.0353 3.77271 12.6645 3.77271H12.6672ZM11.8843 5.34543C12.1167 5.34507 12.3759 5.34543 12.6672 5.34543C14.9973 5.34543 15.2735 5.3538 16.1936 5.39561C17.0445 5.43452 17.5063 5.57671 17.8139 5.69616C18.2212 5.85434 18.5116 6.04343 18.8168 6.34889C19.1223 6.65434 19.3114 6.94525 19.4699 7.35252C19.5893 7.6598 19.7317 8.12161 19.7704 8.97252C19.8122 9.89252 19.8213 10.1689 19.8213 12.498C19.8213 14.8271 19.8122 15.1034 19.7704 16.0234C19.7315 16.8743 19.5893 17.3362 19.4699 17.6434C19.3117 18.0507 19.1223 18.3407 18.8168 18.646C18.5114 18.9514 18.2214 19.1405 17.8139 19.2987C17.5067 19.4187 17.0445 19.5605 16.1936 19.5994C15.2737 19.6413 14.9973 19.6503 12.6672 19.6503C10.3369 19.6503 10.0607 19.6413 9.14075 19.5994C8.28987 19.5602 7.82806 19.418 7.52025 19.2985C7.11299 19.1403 6.82209 18.9513 6.51665 18.6458C6.2112 18.3403 6.02212 18.0502 5.86358 17.6427C5.74413 17.3354 5.60177 16.8736 5.56304 16.0227C5.52122 15.1027 5.51286 14.8263 5.51286 12.4958C5.51286 10.1653 5.52122 9.89034 5.56304 8.97034C5.60195 8.11943 5.74413 7.65761 5.86358 7.34998C6.02175 6.9427 6.2112 6.6518 6.51665 6.34634C6.82209 6.04089 7.11299 5.8518 7.52025 5.69325C7.82788 5.57325 8.28987 5.43143 9.14075 5.39234C9.94582 5.35598 10.2578 5.34507 11.8843 5.34325V5.34543ZM17.3256 6.79452C16.7474 6.79452 16.2784 7.26307 16.2784 7.84143C16.2784 8.41961 16.7474 8.88871 17.3256 8.88871C17.9038 8.88871 18.3728 8.41961 18.3728 7.84143C18.3728 7.26325 17.9038 6.79416 17.3256 6.79416V6.79452ZM12.6672 8.01816C10.1922 8.01816 8.18551 10.0249 8.18551 12.5C8.18551 14.9751 10.1922 16.9809 12.6672 16.9809C15.1422 16.9809 17.1481 14.9751 17.1481 12.5C17.1481 10.0249 15.1422 8.01816 12.6672 8.01816ZM12.6672 9.59089C14.2737 9.59089 15.5762 10.8933 15.5762 12.5C15.5762 14.1065 14.2737 15.4091 12.6672 15.4091C11.0605 15.4091 9.75819 14.1065 9.75819 12.5C9.75819 10.8933 11.0605 9.59089 12.6672 9.59089Z" fill="white"/>
</g>
<defs>
<radialGradient id="paint0_radial_1527_9288" cx="0" cy="0" r="1" gradientUnits="userSpaceOnUse" gradientTransform="translate(7.12806 26.1366) rotate(-90) scale(23.4234 21.7909)">
<stop stop-color="#FFDD55"/>
<stop offset="0.1" stop-color="#FFDD55"/>
<stop offset="0.5" stop-color="#FF543E"/>
<stop offset="1" stop-color="#C837AB"/>
</radialGradient>
<radialGradient id="paint1_radial_1527_9288" cx="0" cy="0" r="1" gradientUnits="userSpaceOnUse" gradientTransform="translate(-3.11121 2.38446) rotate(78.678) scale(10.4705 43.1693)">
<stop stop-color="#3771C8"/>
<stop offset="0.128" stop-color="#3771C8"/>
<stop offset="1" stop-color="#6600FF" stop-opacity="0"/>
</radialGradient>
<clipPath id="clip0_1527_9288">
<rect width="24" height="24" fill="white" transform="translate(0.666992 0.5)"/>
</clipPath>
</defs>
</svg>
