<svg width="24" height="25" viewBox="0 0 24 25" fill="none" xmlns="http://www.w3.org/2000/svg">
<path d="M12 24.5C18.6274 24.5 24 19.1274 24 12.5C24 5.87258 18.6274 0.5 12 0.5C5.37258 0.5 0 5.87258 0 12.5C0 19.1274 5.37258 24.5 12 24.5Z" fill="url(#paint0_linear_1527_9281)"/>
<path d="M4.99382 12.3959L13.0747 9.06642C13.8724 8.7196 16.5776 7.60977 16.5776 7.60977C16.5776 7.60977 17.8262 7.12422 17.7221 8.30341C17.6875 8.78896 17.41 10.4884 17.1325 12.3265L16.2655 17.7716C16.2655 17.7716 16.1961 18.5693 15.6065 18.708C15.0169 18.8468 14.0458 18.2225 13.8724 18.0838C13.7337 17.9797 11.2713 16.419 10.3695 15.656C10.1268 15.4479 9.84931 15.0317 10.4042 14.5462C11.6528 13.4017 13.1441 11.9797 14.0458 11.078C14.462 10.6618 14.8782 9.6907 13.1441 10.8699L8.25393 14.1647C8.25393 14.1647 7.69902 14.5115 6.65856 14.1994C5.6181 13.8872 4.40422 13.471 4.40422 13.471C4.40422 13.471 3.57185 12.9508 4.99382 12.3959Z" fill="white"/>
<defs>
<linearGradient id="paint0_linear_1527_9281" x1="16.0009" y1="4.50092" x2="10.0009" y2="18.5" gradientUnits="userSpaceOnUse">
<stop stop-color="#37AEE2"/>
<stop offset="1" stop-color="#1E96C8"/>
</linearGradient>
</defs>
</svg>
