<svg width="40" height="40" viewBox="0 0 40 40" fill="none" xmlns="http://www.w3.org/2000/svg">
<path d="M22 18V25M18 18L18 25M12 14H28M26 14V25.8C26 26.9201 26.0002 27.4802 25.7822 27.908C25.5905 28.2844 25.2841 28.5902 24.9078 28.782C24.48 29 23.9203 29 22.8002 29H17.2002C16.0801 29 15.5196 29 15.0918 28.782C14.7155 28.5902 14.4097 28.2844 14.218 27.908C14 27.4802 14 26.9201 14 25.8V14H26ZM24 14H16C16 13.0681 16 12.6022 16.1522 12.2346C16.3552 11.7446 16.7443 11.3552 17.2344 11.1522C17.6019 11 18.0681 11 19 11H21C21.9319 11 22.3978 11 22.7654 11.1522C23.2554 11.3552 23.6447 11.7446 23.8477 12.2346C23.9999 12.6022 24 13.0681 24 14Z" stroke="#8A8A8A" stroke-opacity="0.8" stroke-width="1.5" stroke-linecap="round" stroke-linejoin="round"/>
</svg>
