<svg width="20" height="20" viewBox="0 0 20 20" fill="none" xmlns="http://www.w3.org/2000/svg">
<g clip-path="url(#clip0_1527_41365)">
<path d="M8.02838 2.98852C8.07599 2.98832 8.12361 2.98809 8.17123 2.98782C8.29938 2.98722 8.42751 2.98713 8.55566 2.98719C8.66327 2.98719 8.77088 2.98695 8.8785 2.98673C9.13279 2.9862 9.38707 2.98612 9.64136 2.98631C9.90217 2.98649 10.163 2.98586 10.4238 2.98485C10.649 2.98401 10.8742 2.9837 11.0995 2.98381C11.2334 2.98386 11.3674 2.98372 11.5013 2.98304C12.5403 2.9782 13.3609 3.10204 14.1443 3.85279C14.6869 4.40912 14.9615 5.15543 14.9575 5.927C14.9372 6.78994 14.5145 7.4496 14.044 8.14191C14.025 8.17029 14.0059 8.19866 13.9863 8.22789C13.9486 8.28413 13.9104 8.34013 13.8719 8.39586C13.8462 8.43432 13.8462 8.43432 13.8199 8.47356C13.8044 8.49638 13.7888 8.5192 13.7728 8.5427C13.7385 8.60436 13.7385 8.60436 13.766 8.6654C13.807 8.72363 13.8525 8.76755 13.9051 8.81568C14.6348 9.53251 15.1024 10.5605 15.2774 11.5586C15.2822 11.5854 15.2871 11.6122 15.292 11.6397C15.3372 11.9171 15.343 12.1907 15.3423 12.4712C15.3423 12.5073 15.3423 12.5073 15.3423 12.5441C15.3412 12.9354 15.316 13.31 15.2227 13.6914C15.2168 13.7159 15.211 13.7404 15.2049 13.7657C14.9171 14.9367 14.2165 16.0644 13.2249 16.7685C13.1707 16.8079 13.1707 16.8079 13.1221 16.8566C12.8915 17.0569 12.6298 17.0276 12.3414 17.0261C12.2849 17.0265 12.2283 17.0269 12.1718 17.0275C12.0188 17.0287 11.8658 17.0287 11.7128 17.0284C11.5848 17.0283 11.4568 17.0287 11.3288 17.0291C11.0266 17.0301 10.7244 17.0301 10.4222 17.0295C10.1111 17.0288 9.80011 17.0299 9.48905 17.0318C9.22139 17.0334 8.95373 17.0339 8.68606 17.0335C8.52646 17.0333 8.36688 17.0335 8.20729 17.0348C8.05707 17.0359 7.90692 17.0357 7.7567 17.0344C7.70184 17.0342 7.64696 17.0344 7.5921 17.0352C7.21616 17.0399 6.99954 16.9799 6.7188 16.7266C6.68275 16.6977 6.64659 16.669 6.61017 16.6406C6.58183 16.6165 6.55366 16.5922 6.52568 16.5676C6.51013 16.5541 6.49457 16.5406 6.47855 16.5266C6.1797 16.2633 5.91422 15.9824 5.67974 15.6602C5.66844 15.6448 5.65714 15.6293 5.6455 15.6135C5.17188 14.9591 4.8659 14.2109 4.72271 13.418C4.71763 13.3901 4.71256 13.3622 4.70734 13.3335C4.6623 13.0573 4.65711 12.7845 4.65776 12.5054C4.65778 12.4813 4.65779 12.4572 4.65781 12.4324C4.65892 12.0411 4.68406 11.6666 4.77739 11.2852C4.78325 11.2607 4.78911 11.2361 4.79515 11.2109C5.03214 10.2467 5.53472 9.34743 6.25396 8.66016C6.20723 8.51857 6.1238 8.40223 6.04204 8.27906C6.00987 8.22997 5.97772 8.18088 5.94559 8.13177C5.92054 8.09357 5.92054 8.09357 5.89498 8.05461C5.33107 7.19469 4.89137 6.37342 5.09051 5.3084C5.24618 4.57851 5.66698 3.89334 6.29679 3.4797C6.31875 3.46577 6.34071 3.45185 6.36333 3.43751C6.38332 3.42387 6.4033 3.41022 6.42389 3.39617C6.56659 3.30323 6.7168 3.23586 6.87432 3.17261C6.90276 3.1609 6.90276 3.1609 6.93178 3.14895C7.2907 3.01039 7.6488 2.98775 8.02838 2.98852ZM6.38758 4.53756C6.15757 4.80419 5.99393 5.14311 5.92583 5.48829C5.91963 5.51818 5.91342 5.54807 5.90703 5.57886C5.83484 6.43076 6.23207 7.01155 6.67661 7.69117C6.78631 7.8591 6.89444 8.02803 7.00249 8.19703C7.02037 8.22498 7.03825 8.25293 7.05666 8.28174C7.17214 8.46242 7.28734 8.64328 7.40239 8.82422C7.38564 8.83217 7.36889 8.84011 7.35163 8.84829C7.27763 8.88695 7.22439 8.93674 7.16314 8.99341C7.08067 9.06926 6.99782 9.14367 6.91191 9.21558C6.27356 9.77559 5.83874 10.5803 5.62505 11.3945C5.61926 11.4162 5.61347 11.4379 5.60751 11.4603C5.32629 12.5664 5.54204 13.8099 6.11724 14.7852C6.30718 15.0902 6.53286 15.3667 6.77349 15.6328C6.78988 15.6512 6.80627 15.6695 6.82315 15.6885C6.98252 15.8574 7.28823 16.168 7.5192 16.1871C7.55698 16.1877 7.59477 16.1879 7.63255 16.1879C7.65338 16.1881 7.67421 16.1884 7.69567 16.1886C7.7657 16.1893 7.83571 16.1895 7.90574 16.1898C7.95586 16.1902 8.00599 16.1906 8.05611 16.191C8.22098 16.1923 8.38585 16.193 8.55072 16.1937C8.60752 16.1939 8.66432 16.1942 8.72112 16.1945C8.95749 16.1955 9.19386 16.1964 9.43024 16.1969C9.76868 16.1977 10.1071 16.1992 10.4455 16.202C10.6836 16.2039 10.9217 16.2048 11.1598 16.2051C11.3019 16.2052 11.444 16.2058 11.5862 16.2074C11.72 16.2088 11.8539 16.2091 11.9878 16.2085C12.0367 16.2085 12.0857 16.2089 12.1346 16.2098C12.4696 16.2153 12.6527 16.1695 12.8985 15.9336C12.9321 15.9047 12.9658 15.876 12.9996 15.8474C13.0271 15.8222 13.0543 15.7968 13.0813 15.7712C13.0962 15.7573 13.111 15.7434 13.1263 15.729C13.7427 15.1431 14.1524 14.3997 14.375 13.582C14.3848 13.5466 14.3848 13.5466 14.3947 13.5105C14.6695 12.4543 14.4724 11.2408 13.9375 10.3008C13.9201 10.2701 13.9027 10.2393 13.8848 10.2076C13.6019 9.73057 13.2337 9.32362 12.8165 8.96094C12.7901 8.93757 12.7901 8.93757 12.7632 8.91373C12.6909 8.84464 12.6909 8.84464 12.5977 8.82422C12.7995 8.50665 13.0016 8.18929 13.2044 7.87232C13.2228 7.84351 13.2412 7.81471 13.2602 7.78503C13.3543 7.63806 13.4489 7.49149 13.5444 7.3455C13.6032 7.25548 13.6612 7.165 13.7188 7.07422C13.7292 7.05788 13.7396 7.04153 13.7504 7.02469C14.0689 6.51931 14.1811 5.96398 14.0496 5.37517C13.9611 5.0442 13.8046 4.7634 13.5821 4.50391C13.5653 4.48407 13.5485 4.46422 13.5312 4.44378C13.1549 4.03446 12.6196 3.85499 12.0782 3.82032C11.9419 3.81649 11.8057 3.81629 11.6694 3.81635C11.6292 3.81626 11.5889 3.81617 11.5486 3.81607C11.44 3.81583 11.3314 3.81576 11.2228 3.81575C11.1547 3.81573 11.0866 3.81567 11.0185 3.81559C10.7803 3.81534 10.542 3.81523 10.3038 3.81525C10.0828 3.81527 9.86189 3.81498 9.64094 3.81455C9.4503 3.81419 9.25966 3.81404 9.06902 3.81406C8.95558 3.81407 8.84215 3.81399 8.72871 3.8137C8.62185 3.81343 8.515 3.81344 8.40814 3.81363C8.3693 3.81366 8.33046 3.8136 8.29162 3.81343C7.53962 3.8104 6.92017 3.97544 6.38758 4.53756Z" fill="#8A8A8A"/>
<path d="M8.13443 4.62639C8.17974 4.62624 8.22505 4.62604 8.27037 4.62581C8.39251 4.62531 8.51465 4.6255 8.63679 4.62585C8.76517 4.62613 8.89354 4.62587 9.02192 4.6257C9.23742 4.6255 9.45292 4.62576 9.66843 4.62628C9.91689 4.62687 10.1653 4.62668 10.4138 4.62608C10.6279 4.62558 10.8419 4.62551 11.056 4.6258C11.1835 4.62597 11.311 4.626 11.4386 4.62563C11.5585 4.62531 11.6785 4.62554 11.7984 4.62617C11.8422 4.62631 11.886 4.62627 11.9297 4.62603C12.3298 4.62401 12.6462 4.6967 12.953 4.96866C13.2146 5.24468 13.3248 5.58916 13.3165 5.96319C13.2797 6.41841 12.9816 6.79008 12.7337 7.15723C12.6144 7.3342 12.5005 7.51451 12.3863 7.69475C12.2394 7.92634 12.0907 8.1567 11.9413 8.38663C11.7819 8.37065 11.6463 8.32505 11.497 8.26871C10.4201 7.87644 9.28539 7.95249 8.22896 8.36751C8.16786 8.38663 8.16786 8.38663 8.05849 8.38663C8.01068 8.33126 8.01068 8.33126 7.96268 8.25344C7.94484 8.22499 7.927 8.19655 7.90863 8.16724C7.88984 8.13644 7.87105 8.10563 7.8517 8.07389C7.83194 8.04214 7.81215 8.01042 7.79231 7.97872C7.75287 7.91563 7.71361 7.85243 7.67448 7.78914C7.60793 7.68202 7.53956 7.57619 7.47059 7.47062C7.44715 7.43442 7.42372 7.39821 7.40031 7.36199C7.35599 7.29345 7.3116 7.22495 7.26715 7.1565C7.20836 7.0659 7.14977 6.97518 7.0912 6.88444C7.07264 6.85592 7.05408 6.8274 7.03496 6.79802C6.78345 6.4074 6.61607 6.05999 6.7101 5.58454C6.76444 5.39117 6.84281 5.23681 6.96474 5.07804C6.98842 5.04251 6.98842 5.04251 7.01259 5.00626C7.32442 4.6771 7.70335 4.62399 8.13443 4.62639ZM7.67407 5.5541C7.58573 5.65996 7.54563 5.74767 7.52849 5.88457C7.55855 6.08122 7.69972 6.25726 7.80726 6.41959C7.83867 6.46737 7.87008 6.51515 7.90147 6.56293C7.91798 6.58799 7.93448 6.61304 7.95149 6.63885C8.00688 6.72336 8.06168 6.80823 8.11638 6.89319C8.13492 6.92192 8.15347 6.95064 8.17258 6.98024C8.20892 7.03653 8.24517 7.09288 8.28133 7.14928C8.30611 7.18753 8.30611 7.18753 8.33139 7.22655C8.35334 7.26064 8.35334 7.26064 8.37574 7.29541C8.41034 7.35097 8.41034 7.35097 8.46864 7.37491C8.52648 7.36677 8.52648 7.36677 8.59212 7.3496C8.61735 7.34359 8.64259 7.33758 8.66859 7.33139C8.6951 7.32488 8.72161 7.31838 8.74891 7.31168C9.16193 7.21045 9.55898 7.1724 9.9828 7.17325C10.0068 7.17324 10.0308 7.17323 10.0555 7.17322C10.4472 7.17381 10.8204 7.20496 11.203 7.29288C11.2425 7.30142 11.282 7.30993 11.3215 7.31841C11.4009 7.33608 11.4796 7.35499 11.5585 7.37491C11.7214 7.14672 11.8729 6.91213 12.023 6.67541C12.1875 6.41646 12.1875 6.41646 12.2695 6.29697C12.4341 6.06427 12.4341 6.06427 12.4608 5.78898C12.4146 5.64763 12.3364 5.57168 12.2147 5.4882C12.1014 5.46277 11.9926 5.45737 11.8767 5.4572C11.8423 5.45708 11.8079 5.45696 11.7724 5.45684C11.7346 5.45685 11.6968 5.45686 11.659 5.45688C11.6189 5.4568 11.5789 5.4567 11.5388 5.4566C11.4302 5.45636 11.3216 5.4563 11.213 5.45628C11.1451 5.45626 11.0772 5.4562 11.0093 5.45613C10.7722 5.45587 10.5351 5.45576 10.2979 5.45578C10.0772 5.4558 9.85651 5.45551 9.6358 5.45508C9.44602 5.45472 9.25625 5.45458 9.06648 5.45459C8.95326 5.4546 8.84004 5.45452 8.72682 5.45423C8.6203 5.45397 8.51378 5.45397 8.40726 5.45417C8.36829 5.45419 8.32931 5.45413 8.29034 5.45396C7.96822 5.44278 7.96822 5.44278 7.67407 5.5541Z" fill="#8A8A8A"/>
</g>
<defs>
<clipPath id="clip0_1527_41365">
<rect width="14" height="14" fill="white" transform="translate(3 3)"/>
</clipPath>
</defs>
</svg>
